<?xml version="1.0" encoding="UTF-8"?>
<svg width="6px" height="10px" viewBox="0 0 6 10" version="1.1" xmlns="http://www.w3.org/2000/svg" xmlns:xlink="http://www.w3.org/1999/xlink">
    <!-- Generator: Sketch 44.1 (41455) - http://www.bohemiancoding.com/sketch -->
    <title>sxxjj</title>
    <desc>Created with Sketch.</desc>
    <defs></defs>
    <g id="计算机-/-止盈止损" stroke="none" stroke-width="1" fill="none" fill-rule="evenodd" opacity="0.303555254">
        <path d="M3.2674418,9.54583333 C3.18992204,9.6263893 3.10077572,9.66666667 3,9.66666667 C2.89922443,9.66666667 2.81007796,9.6263893 2.7325582,9.54583333 L0.127907582,6.54916667 C-0.0426358608,6.33972124 -0.0426358608,6.13833426 0.127907582,5.945 C0.205427343,5.84833287 0.298449686,5.8 0.406977291,5.8 L5.59302271,5.8 C5.70155046,5.8 5.79457266,5.84027737 5.87209242,5.92083333 L5.87209242,5.945 C6.04263586,6.13833426 6.04263586,6.33972124 5.87209242,6.54916667 L3.2674418,9.52166667 C3.2674418,9.53777783 3.2674418,9.54583333 3.2674418,9.54583333 Z M3.2674418,0.120833333 C3.2674418,0.120833333 3.2674418,0.128888837 3.2674418,0.145 L5.87209242,3.1175 C6.04263586,3.32694542 6.04263586,3.52833241 5.87209242,3.72166667 L5.87209242,3.74583333 C5.79457266,3.8263893 5.70155046,3.86666667 5.59302271,3.86666667 L0.406977291,3.86666667 C0.298449686,3.86666667 0.205427343,3.8183338 0.127907582,3.72166667 C-0.0426358608,3.52833241 -0.0426358608,3.32694542 0.127907582,3.1175 L2.7325582,0.120833333 C2.81007796,0.0402773653 2.89922443,0 3,0 C3.10077572,0 3.18992204,0.0402773653 3.2674418,0.120833333 Z" id="Combined-Shape" fill="#99A6BF" fill-rule="nonzero"></path>
    </g>
</svg>