<?xml version="1.0" encoding="UTF-8"?>
<svg width="20px" height="20px" viewBox="0 0 20 20" version="1.1" xmlns="http://www.w3.org/2000/svg" xmlns:xlink="http://www.w3.org/1999/xlink">
    <!-- Generator: Sketch 42 (36781) - http://www.bohemiancoding.com/sketch -->
    <title>Group 5 Copy 2</title>
    <desc>Created with Sketch.</desc>
    <defs>
        <linearGradient x1="0%" y1="0%" x2="96.7555295%" y2="100%" id="linearGradient-1">
            <stop stop-color="#2CB8BA" offset="0%"></stop>
            <stop stop-color="#008AD0" offset="100%"></stop>
        </linearGradient>
    </defs>
    <g id="Page-1" stroke="none" stroke-width="1" fill="none" fill-rule="evenodd">
        <g id="Group-5-Copy">
            <path d="M20,7.19899666 C20,6.84782609 19.6153846,6.70735786 19.3269231,6.66053512 L13.2932692,5.80602007 L10.5889423,0.47993311 C10.4807692,0.257525084 10.2764423,0 10,0 C9.72355769,0 9.51923077,0.257525084 9.41105769,0.47993311 L6.70673077,5.80602007 L0.673076923,6.66053512 C0.372596154,6.70735786 0,6.84782609 0,7.19899666 C0,7.409699 0.15625,7.60869565 0.300480769,7.76086957 L4.67548077,11.9046823 L3.64182692,17.7575251 C3.62980769,17.8394649 3.61778846,17.909699 3.61778846,17.9916388 C3.61778846,18.2959866 3.77403846,18.5769231 4.12259615,18.5769231 C4.29086538,18.5769231 4.44711538,18.5183946 4.60336538,18.4364548 L10,15.673913 L15.3966346,18.4364548 C15.5408654,18.5183946 15.7091346,18.5769231 15.8774038,18.5769231 C16.2259615,18.5769231 16.3701923,18.2959866 16.3701923,17.9916388 C16.3701923,17.909699 16.3701923,17.8394649 16.3581731,17.7575251 L15.3245192,11.9046823 L19.6875,7.76086957 C19.84375,7.60869565 20,7.409699 20,7.19899666 Z" id="Combined-Shape" fill="#384157"></path>
            <ellipse id="Oval-3" fill="#D8D8D8" opacity="0.397871377" cx="10" cy="19.5961538" rx="6" ry="0.403846154"></ellipse>
        </g>
        <path d="M14.6932005,9.7812192 L15.028022,9.7812192 L15.028022,10.1762861 L14.6932005,10.1762861 C14.6485575,10.6737802 14.4327858,11.0981071 14.0458791,11.4492794 C13.6440914,11.8150839 13.1827865,11.9979834 12.6619505,11.9979834 C12.0964715,11.9979834 11.6128454,11.8004519 11.2110577,11.4053831 C10.80927,11.0103142 10.6083791,10.5347755 10.6083791,9.97875264 C10.6083791,9.8616952 10.5488559,9.7519555 10.4298077,9.64953024 C10.3107595,9.54710497 10.1768322,9.49589311 10.028022,9.49589311 C9.87921171,9.49589311 9.74528447,9.54710497 9.62623626,9.64953024 C9.50718805,9.7519555 9.44766483,9.8616952 9.44766483,9.97875264 C9.44766483,10.5347755 9.24677398,11.0103142 8.84498626,11.4053831 C8.44319854,11.8004519 7.95957242,11.9979834 7.3940934,11.9979834 C6.87325747,11.9979834 6.41195255,11.8150839 6.01016483,11.4492794 C5.62325814,11.0981071 5.40748648,10.6737802 5.3628434,10.1762861 L5.02802197,10.1762861 L5.02802197,9.7812192 L5.3628434,9.7812192 C5.40748648,9.29835725 5.62325814,8.86671441 6.01016483,8.48627773 C6.39707153,8.1351054 6.85837644,7.95952187 7.3940934,7.95952187 C7.87028626,7.95952187 8.29066896,8.09486751 8.65525412,8.36556284 C9.01983927,8.63625818 9.26165233,8.99108322 9.38070055,9.43004863 C9.55927287,9.25446247 9.77504452,9.1666707 10.028022,9.1666707 C10.2809994,9.1666707 10.4967711,9.25446247 10.6753434,9.43004863 C10.7943916,8.99108322 11.0362047,8.63625818 11.4007898,8.36556284 C11.765375,8.09486751 12.1857577,7.95952187 12.6619505,7.95952187 C13.1827865,7.95952187 13.6440914,8.14242138 14.0458791,8.50822589 C14.4327858,8.85939821 14.6485575,9.28372507 14.6932005,9.7812192 Z" id="ion-ios-glasses---Ionicons" stroke="#FFFFFF" stroke-width="0.2" fill="url(#linearGradient-1)"></path>
    </g>
</svg>