<?xml version="1.0" encoding="UTF-8"?>
<svg width="18px" height="18px" viewBox="0 0 18 18" version="1.1" xmlns="http://www.w3.org/2000/svg" xmlns:xlink="http://www.w3.org/1999/xlink">
    <!-- Generator: Sketch 44.1 (41455) - http://www.bohemiancoding.com/sketch -->
    <title>Bitstar_440x440</title>
    <desc>Created with Sketch.</desc>
    <defs></defs>
    <g id="Page-1" stroke="none" stroke-width="1" fill="none" fill-rule="evenodd">
        <g id="Artboard-3">
            <g id="Bitstar_440x440">
                <circle id="Oval" fill="#21202D" fill-rule="nonzero" cx="9" cy="9" r="9"></circle>
                <g id="Group" transform="translate(1.431818, 1.309091)">
                    <path d="M0.00135830966,7.60909091 L0.00135830966,4.65276989 L1.00610795,4.65276989 C1.30307322,4.65276989 1.52912298,4.70869973 1.68426403,4.8205611 C1.83940507,4.93242243 1.91697443,5.09555115 1.91697443,5.30995205 C1.91697443,5.66551137 1.68060428,5.91719564 1.20785689,6.06501241 C1.76050525,6.19951238 2.03682528,6.47050578 2.03682528,6.8780007 C2.03682528,7.11370857 1.95592677,7.2944818 1.79412731,7.42032581 C1.63232785,7.54616982 1.4002856,7.60909091 1.09799361,7.60909091 L0.00135830966,7.60909091 Z M0.58063743,5.88323864 L0.726455966,5.88323864 C0.89957473,5.88323864 1.03706892,5.84062544 1.13894265,5.75539773 C1.24081638,5.67017002 1.29175249,5.55431535 1.29175249,5.40783025 C1.29175249,5.2719986 1.25080385,5.17978096 1.16890536,5.13117454 C1.08700687,5.08256812 0.932201067,5.05826525 0.704483309,5.05826525 L0.58063743,5.05826525 L0.58063743,5.88323864 Z M0.58063743,7.18961294 L0.712473365,7.18961294 C0.97081983,7.18961294 1.14892973,7.16198093 1.24680842,7.1067161 C1.3446871,7.05145124 1.39362571,6.9505778 1.39362571,6.8040927 C1.39362571,6.65361254 1.32804132,6.52843624 1.19687056,6.42856001 C1.06569981,6.32868382 0.900240701,6.27874646 0.700488282,6.27874646 L0.58063743,6.27874646 L0.58063743,7.18961294 Z M2.36323075,7.60909091 L2.36323075,5.41582032 L2.95449496,5.41582032 L2.95449496,7.60909091 L2.36323075,7.60909091 Z M2.36323075,5.0462802 L2.36323075,4.55289419 L2.95449496,4.55289419 L2.95449496,5.0462802 L2.36323075,5.0462802 Z M4.60924736,7.59710581 C4.46808899,7.638388 4.35689513,7.65902876 4.27566248,7.65902876 C3.76296462,7.65902876 3.50661953,7.41932947 3.50661953,6.93992365 L3.50661953,5.78536045 L3.26092528,5.78536045 L3.26092528,5.41582032 L3.50661953,5.41582032 L3.50661953,5.0462802 L4.09788372,4.97836469 L4.09788372,5.41582032 L4.56729959,5.41582032 L4.56729959,5.78536045 L4.09788372,5.78536045 L4.09788372,6.86202059 C4.09788372,7.13102052 4.2077459,7.26551845 4.42747358,7.26551845 C4.47807751,7.26551845 4.53866817,7.25619682 4.60924736,7.23755328 L4.60924736,7.59710581 Z" id="Bit" fill="#FFFFFF" fill-rule="nonzero"></path>
                    <path d="M2.18863636,9.37329545 L1.76420455,9.37329545 C1.72670436,9.08693039 1.59204661,8.94375 1.36022727,8.94375 C1.21022652,8.94375 1.09772765,8.97954509 1.02272727,9.05113636 C0.947726898,9.12272764 0.910227273,9.2301129 0.910227273,9.37329545 C0.910227273,9.47897779 0.951135955,9.57954498 1.03295455,9.675 L1.93806818,10.6875 C2.10511447,10.8750009 2.18863636,11.0761353 2.18863636,11.2909091 L2.18863636,11.5005682 C2.18863636,11.7323875 2.10511447,11.9326696 1.93806818,12.1014205 C1.77102189,12.2701713 1.56988754,12.3545455 1.33465909,12.3545455 L0.910227273,12.3545455 C0.627271315,12.3545455 0.414205261,12.2838075 0.271022727,12.1423295 C0.127840193,12.0008516 0.05625,11.7869333 0.05625,11.5005682 L0.485795455,11.5005682 L0.485795455,11.5721591 C0.485795455,11.6880688 0.530113193,11.7767043 0.61875,11.8380682 C0.707386807,11.8994321 0.804544928,11.9301136 0.910227273,11.9301136 C1.06022802,11.9301136 1.16846558,11.8934663 1.23494318,11.8201705 C1.30142079,11.7468746 1.33465909,11.6403416 1.33465909,11.5005682 C1.33465909,11.3914767 1.29375041,11.2909095 1.21193182,11.1988636 L0.306818182,10.1863636 C0.139771892,10.0022718 0.05625,9.80113745 0.05625,9.58295455 L0.05625,9.37329545 C0.05625,9.14147611 0.139771892,8.94119404 0.306818182,8.77244318 C0.473864474,8.60369232 0.674998826,8.51931818 0.910227273,8.51931818 L1.33465909,8.51931818 C1.86988904,8.51931818 2.15454528,8.80397444 2.18863636,9.37329545 Z M3.1983944,12.3545455 L3.1983944,8.94375 L2.34441713,8.94375 L2.34441713,8.51931818 L4.9012353,8.51931818 L4.9012353,8.94375 L4.04725804,8.94375 L4.04725804,12.3545455 L3.1983944,12.3545455 Z M5.0570161,12.3545455 L5.0570161,9.37329545 C5.0570161,9.138067 5.14139024,8.93693266 5.3101411,8.76988636 C5.47889191,8.60284006 5.67917403,8.51931818 5.91099337,8.51931818 L6.76497064,8.51931818 C6.99678998,8.51931818 7.1962198,8.60369232 7.3632661,8.77244318 C7.53031235,8.94119404 7.61383428,9.14147611 7.61383428,9.37329545 L7.61383428,12.3545455 L6.76497064,12.3545455 L6.76497064,10.6517045 L5.91099337,10.6517045 L5.91099337,12.3545455 L5.0570161,12.3545455 Z M5.91099337,10.2221591 L6.76497064,10.2221591 L6.76497064,9.37329545 C6.76497064,9.25397669 6.7232097,9.15255724 6.63968655,9.06903409 C6.5561634,8.98551094 6.45474395,8.94375 6.33542519,8.94375 C6.2195155,8.94375 6.11980061,8.98551094 6.03627746,9.06903409 C5.95275431,9.15255724 5.91099337,9.25397669 5.91099337,9.37329545 L5.91099337,10.2221591 Z M8.19916049,12.3545455 L8.19916049,8.51931818 L9.90711503,8.51931818 C10.1389344,8.51931818 10.3383642,8.60369232 10.5054105,8.77244318 C10.6724568,8.94119404 10.7559787,9.14147611 10.7559787,9.37329545 L10.7559787,9.60340909 C10.7559787,9.79431914 10.6912066,9.97755595 10.5616605,10.153125 C10.4321144,10.3286941 10.2139348,10.4164773 9.90711503,10.4164773 L10.3315469,10.4164773 C10.4474565,10.4164773 10.5471714,10.4582382 10.6306946,10.5417614 C10.7142177,10.6252845 10.7559787,10.726704 10.7559787,10.8460227 L10.7559787,12.3545455 L9.90711503,12.3545455 L9.90711503,11.0761364 C9.90711503,10.9602267 9.86535409,10.8605118 9.78183094,10.7769886 C9.69830779,10.6934655 9.59688835,10.6517045 9.47756958,10.6517045 L9.05313776,10.6517045 L9.05313776,12.3545455 L8.19916049,12.3545455 Z M9.05313776,10.2221591 L9.47756958,10.2221591 C9.59688835,10.2221591 9.69830779,10.1803982 9.78183094,10.096875 C9.86535409,10.0133518 9.90711503,9.91363696 9.90711503,9.79772727 L9.90711503,9.37329545 C9.90711503,9.25397669 9.86535409,9.15255724 9.78183094,9.06903409 C9.69830779,8.98551094 9.59688835,8.94375 9.47756958,8.94375 L9.05313776,8.94375 L9.05313776,10.2221591 Z" id="STAR" fill="#FFFFFF" fill-rule="nonzero"></path>
                    <path d="M10.5504542,13.314364 C10.9884492,13.5316818 11.8644391,13.9663172 11.8644391,13.9663172 C11.9771646,14.0283898 12.1086777,14.0727273 12.2401908,14.0727273 C12.5126108,14.0727273 12.6253363,13.8599072 12.6253363,13.6293521 C12.6253363,13.5672796 12.6253363,13.5140746 12.6159425,13.4520021 L11.8080763,9.01825057 L15.2180229,5.87915448 C15.3401423,5.76387695 15.4622615,5.61312941 15.4622615,5.45351437 C15.4622615,5.18748926 15.1616602,5.08107923 14.9362092,5.04560921 L10.2205254,4.39828151 L8.10692219,0.363567623 C8.02237807,0.195085066 7.86268358,0 7.64662635,0 C7.43056912,0 7.27087467,0.195085066 7.18633055,0.363567623 L5.07272727,4.39828151" id="Combined-Shape-Copy-2" stroke="#F8E81C" stroke-linecap="round" stroke-linejoin="round"></path>
                </g>
            </g>
        </g>
    </g>
</svg>