<?xml version="1.0" encoding="UTF-8"?>
<svg width="60px" height="34px" viewBox="0 0 60 34" version="1.1" xmlns="http://www.w3.org/2000/svg" xmlns:xlink="http://www.w3.org/1999/xlink">
    <!-- Generator: Sketch 44.1 (41455) - http://www.bohemiancoding.com/sketch -->
    <title>btcsyxz</title>
    <desc>Created with Sketch.</desc>
    <defs></defs>
    <g id="Page-1" stroke="none" stroke-width="1" fill="none" fill-rule="evenodd">
        <g id="Artboard-5" transform="translate(-128.000000, -47.000000)">
            <g id="Group-48" transform="translate(132.000000, 49.000000)">
                <rect id="Rectangle-23" fill="#8192A7" x="0" y="0" width="50" height="24" rx="2"></rect>
                <path d="M22,16.7363281 L22,8.14648438 L25.2226562,8.14648438 C25.8789095,8.14648438 26.4052715,8.23339757 26.8017578,8.40722656 C27.1982442,8.58105556 27.5087879,8.84863101 27.7333984,9.20996094 C27.9580089,9.57129087 28.0703125,9.94921678 28.0703125,10.34375 C28.0703125,10.7109393 27.9707041,11.056639 27.7714844,11.3808594 C27.5722646,11.7050797 27.2714864,11.9667959 26.8691406,12.1660156 C27.3886745,12.3183601 27.7880845,12.5781232 28.0673828,12.9453125 C28.3466811,13.3125018 28.4863281,13.7460912 28.4863281,14.2460938 C28.4863281,14.6484395 28.401368,15.0224592 28.2314453,15.3681641 C28.0615226,15.7138689 27.8515638,15.9804678 27.6015625,16.1679688 C27.3515612,16.3554697 27.0380878,16.4970698 26.6611328,16.5927734 C26.2841778,16.688477 25.8222684,16.7363281 25.2753906,16.7363281 L22,16.7363281 Z M23.1367188,11.7558594 L24.9941406,11.7558594 C25.4980494,11.7558594 25.8593739,11.7226566 26.078125,11.65625 C26.3671889,11.5703121 26.5849602,11.4277354 26.7314453,11.2285156 C26.8779304,11.0292959 26.9511719,10.7792984 26.9511719,10.4785156 C26.9511719,10.1933579 26.8828132,9.9423839 26.7460938,9.72558594 C26.6093743,9.50878798 26.4140638,9.36035196 26.1601562,9.28027344 C25.9062487,9.20019491 25.4707062,9.16015625 24.8535156,9.16015625 L23.1367188,9.16015625 L23.1367188,11.7558594 Z M23.1367188,15.7226562 L25.2753906,15.7226562 C25.64258,15.7226562 25.9003899,15.7089845 26.0488281,15.6816406 C26.3105482,15.6347654 26.529296,15.5566412 26.7050781,15.4472656 C26.8808603,15.3378901 27.0253901,15.178712 27.1386719,14.9697266 C27.2519537,14.7607411 27.3085938,14.5195326 27.3085938,14.2460938 C27.3085938,13.9257796 27.2265633,13.6474621 27.0625,13.4111328 C26.8984367,13.1748035 26.6708999,13.0087895 26.3798828,12.9130859 C26.0888657,12.8173823 25.6699246,12.7695312 25.1230469,12.7695312 L23.1367188,12.7695312 L23.1367188,15.7226562 Z M32.2363281,16.7363281 L32.2363281,9.16015625 L29.40625,9.16015625 L29.40625,8.14648438 L36.2148438,8.14648438 L36.2148438,9.16015625 L33.3730469,9.16015625 L33.3730469,16.7363281 L32.2363281,16.7363281 Z M43.5097656,13.7246094 L44.6464844,14.0117188 C44.4082019,14.9453172 43.9794953,15.6572241 43.3603516,16.1474609 C42.7412078,16.6376978 41.9843795,16.8828125 41.0898438,16.8828125 C40.1640579,16.8828125 39.4111357,16.6943378 38.8310547,16.3173828 C38.2509737,15.9404278 37.8095718,15.3945348 37.5068359,14.6796875 C37.2041,13.9648402 37.0527344,13.1972697 37.0527344,12.3769531 C37.0527344,11.4824174 37.2236311,10.7021518 37.5654297,10.0361328 C37.9072283,9.37011386 38.3935515,8.86425954 39.0244141,8.51855469 C39.6552766,8.17284983 40.3496056,8 41.1074219,8 C41.9668012,8 42.6894502,8.21874781 43.2753906,8.65625 C43.8613311,9.09375219 44.2695301,9.70898041 44.5,10.5019531 L43.3808594,10.765625 C43.1816396,10.1406219 42.89258,9.6855483 42.5136719,9.40039062 C42.1347637,9.11523295 41.658206,8.97265625 41.0839844,8.97265625 C40.4238248,8.97265625 39.8720725,9.13085779 39.4287109,9.44726562 C38.9853493,9.76367346 38.673829,10.1884739 38.4941406,10.7216797 C38.3144522,11.2548855 38.2246094,11.8046847 38.2246094,12.3710938 C38.2246094,13.1015662 38.3310536,13.7392551 38.5439453,14.2841797 C38.756837,14.8291043 39.0878884,15.2363268 39.5371094,15.5058594 C39.9863304,15.775392 40.4726536,15.9101562 40.9960938,15.9101562 C41.6328157,15.9101562 42.1718728,15.7265643 42.6132812,15.359375 C43.0546897,14.9921857 43.3535148,14.4472692 43.5097656,13.7246094 Z" id="BTC" fill="#272734"></path>
                <path d="M11,19 C7.13400675,19 4,15.8659932 4,12 C4,8.13400675 7.13400675,5 11,5 C14.8659932,5 18,8.13400675 18,12 C18,15.8659932 14.8659932,19 11,19 Z M13.9687542,10.3173077 C13.8697724,9.36027644 12.955646,9.03951322 11.8027987,8.95012019 L11.8027987,7.625 L10.9061397,7.625 L10.9061397,8.9133113 C10.6732413,8.9133113 10.4345204,8.91856971 10.1957995,8.92382812 L10.1957995,7.625 L9.29914046,7.625 L9.29914046,8.95012019 C9.10699925,8.95537861 8.91485803,8.95537861 8.73436174,8.95537861 L7.5,8.95012019 L7.5,9.8125 C8.1579381,9.80198317 8.14629318,9.8125 8.14629318,9.8125 C8.51310822,9.8125 8.62955744,10.0018029 8.66449221,10.1700721 L8.66449221,11.6792368 C8.68778205,11.6792368 8.72271682,11.6792368 8.75765158,11.6844952 L8.66449221,11.6844952 L8.66449221,13.7983774 C8.64702482,13.9035457 8.57715529,14.0665565 8.32678947,14.0665565 C8.32678947,14.0665565 8.33843439,14.0770733 7.68049629,14.0665565 L7.5,15.0288462 L8.66449221,15.0288462 C8.87992327,15.0288462 9.08953186,15.0341046 9.29914046,15.0341046 L9.29914046,16.375 L10.1957995,16.375 L10.1957995,15.0498798 C10.4403428,15.0551382 10.6790637,15.0551382 10.9061397,15.0551382 L10.9061397,16.375 L11.8027987,16.375 L11.8027987,15.0341046 C13.3049937,14.9604868 14.3530366,14.6186899 14.4869532,13.3408954 C14.5917575,12.3155048 14.0560911,11.8580228 13.2060118,11.6739784 C13.7183884,11.4373498 14.0444462,11.0166767 13.9687542,10.3173077 Z M12.7169251,13.183143 C12.7169251,14.1875 10.8188028,14.0718149 10.2132668,14.0718149 L10.2132668,12.2944712 C10.8188028,12.2944712 12.7169251,12.1419772 12.7169251,13.183143 Z M12.3035304,10.6801382 C12.3035304,11.5898438 10.719821,11.4846755 10.2132668,11.4846755 L10.2132668,9.87034255 C10.719821,9.87034255 12.3035304,9.72836538 12.3035304,10.6801382 Z" id="Combined-Shape" fill="#272734"></path>
            </g>
        </g>
    </g>
</svg>