<?xml version="1.0" encoding="UTF-8"?>
<svg width="60px" height="34px" viewBox="0 0 60 34" version="1.1" xmlns="http://www.w3.org/2000/svg" xmlns:xlink="http://www.w3.org/1999/xlink">
    <!-- Generator: Sketch 44.1 (41455) - http://www.bohemiancoding.com/sketch -->
    <title>etcsyxz</title>
    <desc>Created with Sketch.</desc>
    <defs></defs>
    <g id="Page-1" stroke="none" stroke-width="1" fill="none" fill-rule="evenodd">
        <g id="Artboard-5" transform="translate(-248.000000, -47.000000)">
            <g id="Group-46" transform="translate(252.000000, 49.000000)">
                <rect id="Rectangle-23-Copy-2" fill="#8192A7" x="0" y="0" width="50" height="24" rx="2"></rect>
                <g id="Group-49" transform="translate(4.000000, 5.000000)">
                    <circle id="Combined-Shape" fill="#272734" cx="7" cy="7" r="7"></circle>
                    <polygon id="Combined-Shape" fill="#8192A7" points="6.8563018 9.1765625 4.375 7.590625 6.8563018 11.375 9.33911967 7.590625 6.85579644 9.1765625"></polygon>
                    <path d="M6.89361779,3.65287496 L5.07806348,6.9132589 L6.89383746,8.07502126 L8.70928745,6.91466656 L6.89361779,3.65287496 Z" id="Combined-Shape" stroke="#8192A7"></path>
                </g>
                <path d="M22,16.7363281 L22,8.14648438 L28.2109375,8.14648438 L28.2109375,9.16015625 L23.1367188,9.16015625 L23.1367188,11.7910156 L27.8886719,11.7910156 L27.8886719,12.7988281 L23.1367188,12.7988281 L23.1367188,15.7226562 L28.4101562,15.7226562 L28.4101562,16.7363281 L22,16.7363281 Z M32.1660156,16.7363281 L32.1660156,9.16015625 L29.3359375,9.16015625 L29.3359375,8.14648438 L36.1445312,8.14648438 L36.1445312,9.16015625 L33.3027344,9.16015625 L33.3027344,16.7363281 L32.1660156,16.7363281 Z M43.4394531,13.7246094 L44.5761719,14.0117188 C44.3378894,14.9453172 43.9091828,15.6572241 43.2900391,16.1474609 C42.6708953,16.6376978 41.914067,16.8828125 41.0195312,16.8828125 C40.0937454,16.8828125 39.3408232,16.6943378 38.7607422,16.3173828 C38.1806612,15.9404278 37.7392593,15.3945348 37.4365234,14.6796875 C37.1337875,13.9648402 36.9824219,13.1972697 36.9824219,12.3769531 C36.9824219,11.4824174 37.1533186,10.7021518 37.4951172,10.0361328 C37.8369158,9.37011386 38.323239,8.86425954 38.9541016,8.51855469 C39.5849641,8.17284983 40.2792931,8 41.0371094,8 C41.8964887,8 42.6191377,8.21874781 43.2050781,8.65625 C43.7910186,9.09375219 44.1992176,9.70898041 44.4296875,10.5019531 L43.3105469,10.765625 C43.1113271,10.1406219 42.8222675,9.6855483 42.4433594,9.40039062 C42.0644512,9.11523295 41.5878935,8.97265625 41.0136719,8.97265625 C40.3535123,8.97265625 39.80176,9.13085779 39.3583984,9.44726562 C38.9150368,9.76367346 38.6035165,10.1884739 38.4238281,10.7216797 C38.2441397,11.2548855 38.1542969,11.8046847 38.1542969,12.3710938 C38.1542969,13.1015662 38.2607411,13.7392551 38.4736328,14.2841797 C38.6865245,14.8291043 39.0175759,15.2363268 39.4667969,15.5058594 C39.9160179,15.775392 40.4023411,15.9101562 40.9257812,15.9101562 C41.5625032,15.9101562 42.1015603,15.7265643 42.5429688,15.359375 C42.9843772,14.9921857 43.2832023,14.4472692 43.4394531,13.7246094 Z" id="ETC" fill="#272734"></path>
            </g>
        </g>
    </g>
</svg>