<?xml version="1.0" encoding="UTF-8"?>
<svg width="60px" height="34px" viewBox="0 0 60 34" version="1.1" xmlns="http://www.w3.org/2000/svg" xmlns:xlink="http://www.w3.org/1999/xlink">
    <!-- Generator: Sketch 44.1 (41455) - http://www.bohemiancoding.com/sketch -->
    <title>ethsyxz</title>
    <desc>Created with Sketch.</desc>
    <defs></defs>
    <g id="Page-1" stroke="none" stroke-width="1" fill="none" fill-rule="evenodd">
        <g id="Artboard-5" transform="translate(-188.000000, -47.000000)">
            <g id="Group-45" transform="translate(192.000000, 49.000000)">
                <rect id="Rectangle-23-Copy" fill="#8192A7" x="0" y="0" width="50" height="24" rx="2"></rect>
                <path d="M22,16.5898438 L22,8 L28.2109375,8 L28.2109375,9.01367188 L23.1367188,9.01367188 L23.1367188,11.6445312 L27.8886719,11.6445312 L27.8886719,12.6523438 L23.1367188,12.6523438 L23.1367188,15.5761719 L28.4101562,15.5761719 L28.4101562,16.5898438 L22,16.5898438 Z M32.1660156,16.5898438 L32.1660156,9.01367188 L29.3359375,9.01367188 L29.3359375,8 L36.1445312,8 L36.1445312,9.01367188 L33.3027344,9.01367188 L33.3027344,16.5898438 L32.1660156,16.5898438 Z M37.3457031,16.5898438 L37.3457031,8 L38.4824219,8 L38.4824219,11.5273438 L42.9472656,11.5273438 L42.9472656,8 L44.0839844,8 L44.0839844,16.5898438 L42.9472656,16.5898438 L42.9472656,12.5410156 L38.4824219,12.5410156 L38.4824219,16.5898438 L37.3457031,16.5898438 Z" id="ETH" fill="#272734"></path>
                <path d="M11,19 C7.13400675,19 4,15.8659932 4,12 C4,8.13400675 7.13400675,5 11,5 C14.8659932,5 18,8.13400675 18,12 C18,15.8659932 14.8659932,19 11,19 Z M10.8563018,14.1765625 L8.375,12.590625 L10.8563018,16.375 L13.3391197,12.590625 L10.8557964,14.1765625 L10.8563018,14.1765625 Z M10.8936982,7.625 L8.4123964,12.0809375 L10.8936982,13.6685156 L13.375,12.0825781 L10.8936982,7.625 Z" id="Combined-Shape" fill="#272734"></path>
            </g>
        </g>
    </g>
</svg>