<?xml version="1.0" encoding="UTF-8"?>
<svg width="60px" height="34px" viewBox="0 0 60 34" version="1.1" xmlns="http://www.w3.org/2000/svg" xmlns:xlink="http://www.w3.org/1999/xlink">
    <!-- Generator: Sketch 44.1 (41455) - http://www.bohemiancoding.com/sketch -->
    <title>ltcsyxz</title>
    <desc>Created with Sketch.</desc>
    <defs></defs>
    <g id="Page-1" stroke="none" stroke-width="1" fill="none" fill-rule="evenodd">
        <g id="Artboard-5" transform="translate(-308.000000, -47.000000)">
            <g id="Group-47" transform="translate(312.000000, 49.000000)">
                <rect id="Rectangle-23-Copy-3" fill="#8192A7" x="0" y="0" width="50" height="24" rx="2"></rect>
                <path d="M22,16.7363281 L22,8.14648438 L23.1367188,8.14648438 L23.1367188,15.7226562 L27.3671875,15.7226562 L27.3671875,16.7363281 L22,16.7363281 Z M30.015625,16.7363281 L30.015625,9.16015625 L27.1855469,9.16015625 L27.1855469,8.14648438 L33.9941406,8.14648438 L33.9941406,9.16015625 L31.1523438,9.16015625 L31.1523438,16.7363281 L30.015625,16.7363281 Z M41.2890625,13.7246094 L42.4257812,14.0117188 C42.1874988,14.9453172 41.7587922,15.6572241 41.1396484,16.1474609 C40.5205047,16.6376978 39.7636763,16.8828125 38.8691406,16.8828125 C37.9433547,16.8828125 37.1904326,16.6943378 36.6103516,16.3173828 C36.0302705,15.9404278 35.5888687,15.3945348 35.2861328,14.6796875 C34.9833969,13.9648402 34.8320312,13.1972697 34.8320312,12.3769531 C34.8320312,11.4824174 35.002928,10.7021518 35.3447266,10.0361328 C35.6865251,9.37011386 36.1728484,8.86425954 36.8037109,8.51855469 C37.4345735,8.17284983 38.1289025,8 38.8867188,8 C39.746098,8 40.4687471,8.21874781 41.0546875,8.65625 C41.6406279,9.09375219 42.048827,9.70898041 42.2792969,10.5019531 L41.1601562,10.765625 C40.9609365,10.1406219 40.6718769,9.6855483 40.2929688,9.40039062 C39.9140606,9.11523295 39.4375029,8.97265625 38.8632812,8.97265625 C38.2031217,8.97265625 37.6513694,9.13085779 37.2080078,9.44726562 C36.7646462,9.76367346 36.4531259,10.1884739 36.2734375,10.7216797 C36.0937491,11.2548855 36.0039062,11.8046847 36.0039062,12.3710938 C36.0039062,13.1015662 36.1103505,13.7392551 36.3232422,14.2841797 C36.5361339,14.8291043 36.8671853,15.2363268 37.3164062,15.5058594 C37.7656272,15.775392 38.2519505,15.9101562 38.7753906,15.9101562 C39.4121126,15.9101562 39.9511697,15.7265643 40.3925781,15.359375 C40.8339866,14.9921857 41.1328117,14.4472692 41.2890625,13.7246094 Z" id="LTC" fill="#272734"></path>
                <path d="M11,19 C7.13400675,19 4,15.8659932 4,12 C4,8.13400675 7.13400675,5 11,5 C14.8659932,5 18,8.13400675 18,12 C18,15.8659932 14.8659932,19 11,19 Z M10.735842,8.5 L9.65810254,11.4927376 L8.64377236,11.7210193 L8.32677884,12.5833248 L9.34113555,12.3550983 L8.2,15.5 L13.3773486,15.5 L13.8,14.3587019 L10.6301775,14.3587019 L11.5388499,11.8731913 L12.7856698,11.5942224 L13.0603617,10.7318696 L11.8558566,11.0108542 L12.7434014,8.5 L10.735842,8.5 Z" id="Combined-Shape-Copy-4" fill="#272734"></path>
            </g>
        </g>
    </g>
</svg>